<svg xmlns="http://www.w3.org/2000/svg" id="Layer_1" viewBox="-566.7 3726.1 635.9 200">
  <style id="style3">.st0{fill:#00b0f0}.st1{enable-background:new}</style>
  <g id="g5">
    <path class="st0" d="M-461.1 3852.5l-79-126.4h-21.8c-4.4 0-6 3-3.8 6.7l53 86.5.3.4 35.9 57.5 15.4-24.7z"
          id="path7"/>
    <path class="st0"
          d="M-448.9 3832.8c2.3-3.7 2.3-9.7 0-13.4l-53.6-86.6c-2.3-3.7-7.7-6.7-12-6.7h-22l77.2 123.5 10.4-16.8z"
          id="path9"/>
    <path class="st0" d="M-493.8 3855.3l-44.2 70.8h23.5c4.3 0 9.8-3 12-6.7l21.4-34.6c.1-.1.2-.4.6-1l2.2-3.6-15.5-24.9z"
          id="path11"/>
    <path class="st0" d="M-512.6 3832.8l-53 86.5c-2.3 3.7-.6 6.7 3.8 6.7h20.3l46-73.6-15.4-24.8c-.3 1.9-.9 3.7-1.7 5.2z"
          id="path13"/>
  </g>
  <g class="st1" id="g15">
    <path class="st0"
          d="M-355.7 3786.8c0 8.9-2.5 15.8-7.4 20.7-4.9 4.8-11.8 7.2-20.7 7.2h-17.3v-53.5h18.5c8.6 0 15.2 2.2 19.9 6.6 4.6 4.4 7 10.7 7 19zm-15.1.5c0-4.9-1-8.5-2.9-10.9-1.9-2.4-4.9-3.6-8.8-3.6h-4.2v30h3.2c4.4 0 7.6-1.3 9.7-3.8 2.1-2.5 3-6.4 3-11.7z"
          id="path23" fill="#fff"/>
    <path class="st0"
          d="M-330 3815.4c-6.9 0-12.3-1.8-16.1-5.5-3.8-3.7-5.7-8.9-5.7-15.7 0-7 1.8-12.4 5.3-16.1 3.5-3.7 8.6-5.6 15.2-5.6 6.2 0 11.1 1.6 14.5 4.9 3.4 3.3 5.1 8 5.1 14.1v6.4h-25.6c.1 2.3.9 4.1 2.5 5.5 1.6 1.3 3.8 2 6.5 2 2.5 0 4.8-.2 6.9-.7 2.1-.5 4.4-1.3 6.9-2.4v10.3c-2.2 1.1-4.6 1.9-7 2.4-2.4.5-5.1.4-8.5.4zm-.8-33.2c-1.7 0-3.1.5-4.2 1.6s-1.8 2.7-2 5h12.3c0-2-.6-3.6-1.7-4.8-1.1-1.2-2.6-1.8-4.4-1.8z"
          id="path25" fill="#fff"/>
    <path class="st0"
          d="M-295.7 3814.7l-15.8-41.5h14.9l7 24.5c0 .1.1.3.1.6s.1.6.2 1 .1.8.2 1.3.1.9.1 1.3h.3c0-1.3.2-2.6.7-4.1l7.4-24.6h14.9l-15.8 41.5h-14.2z"
          id="path27" fill="#fff"/>
    <path class="st0" d="M-248.7 3814.7H-263v-53.5h31.6v11.6h-17.4v10.2h16v11.6h-16v20.1z" id="path29" fill="#fff"/>
    <path class="st0"
          d="M-206.3 3815.4c-6.9 0-12.3-1.8-16.1-5.5-3.8-3.7-5.7-8.9-5.7-15.7 0-7 1.8-12.4 5.3-16.1 3.5-3.7 8.6-5.6 15.2-5.6 6.2 0 11.1 1.6 14.5 4.9 3.4 3.3 5.1 8 5.1 14.1v6.4h-25.6c.1 2.3.9 4.1 2.5 5.5 1.6 1.3 3.8 2 6.5 2 2.5 0 4.8-.2 6.9-.7 2.1-.5 4.4-1.3 6.9-2.4v10.3c-2.2 1.1-4.6 1.9-7 2.4-2.4.2-5.2.4-8.5.4zm-.9-33.2c-1.7 0-3.1.5-4.2 1.6s-1.8 2.7-2 5h12.3c0-2-.6-3.6-1.7-4.8-1.1-1.2-2.6-1.8-4.4-1.8z"
          id="path31" fill="#fff"/>
    <path class="st0"
          d="M-151 3802c0 4.4-1.5 7.8-4.5 10.1s-7.4 3.4-13 3.4c-3.1 0-5.8-.2-8-.5s-4.6-.9-7-1.8v-11.5c2.2 1 4.7 1.8 7.3 2.4 2.6.6 5 1 7.1 1 3.1 0 4.7-.7 4.7-2.1 0-.7-.4-1.4-1.3-2-.9-.6-3.4-1.7-7.6-3.4-3.8-1.6-6.5-3.3-8-5.3s-2.3-4.5-2.3-7.6c0-3.9 1.5-6.9 4.5-9 3-2.1 7.2-3.2 12.6-3.2 2.7 0 5.3.3 7.7.9 2.4.6 4.9 1.5 7.5 2.6l-3.9 9.2c-1.9-.9-3.9-1.6-6-2.2-2.1-.6-3.9-.9-5.2-.9-2.3 0-3.5.6-3.5 1.7 0 .7.4 1.3 1.2 1.8.8.5 3.2 1.5 7.1 3.1 2.9 1.2 5.1 2.4 6.5 3.5 1.4 1.1 2.5 2.5 3.1 4 .7 1.7 1 3.5 1 5.8z"
          id="path33" fill="#fff"/>
    <path class="st0"
          d="M-125.7 3804.1c1.9 0 4.2-.5 6.9-1.4v10.4c-1.9.8-3.8 1.4-5.5 1.8-1.7.4-3.8.5-6.1.5-4.8 0-8.3-1.2-10.4-3.5-2.1-2.3-3.2-6-3.2-10.9v-17.1h-5v-5.8l6.4-4.5 3.7-8.7h9.4v8.3h10.2v10.7h-10.3v16.2c0 2.7 1.3 4 3.9 4z"
          id="path35" fill="#fff"/>
  </g>
  <g transform="matrix(1.31146 0 0 1.7196 -617.124 3580.258)" style="line-height:125%" id="flowRoot4151"
     font-weight="400" font-size="40" font-family="sans-serif" letter-spacing="0" word-spacing="0" fill="#00b0f0">
    <path d="M161.896 147.93h24.668v3.32h-10.351v25.84h-3.965v-25.84h-10.352v-3.32z"
          style="line-height:125%;text-align:start" id="path4160"/>
    <path
        d="M191.916 157.735q-2.89 0-4.57 2.266-1.68 2.246-1.68 6.172 0 3.925 1.66 6.191 1.68 2.246 4.59 2.246 2.871 0 4.55-2.265 1.68-2.266 1.68-6.172 0-3.887-1.68-6.153-1.679-2.285-4.55-2.285zm0-3.047q4.688 0 7.363 3.047 2.676 3.047 2.676 8.438 0 5.37-2.676 8.437-2.675 3.047-7.363 3.047-4.707 0-7.383-3.047-2.656-3.066-2.656-8.437 0-5.39 2.656-8.438 2.676-3.047 7.383-3.047z"
        style="line-height:125%;text-align:start" id="path4162"/>
    <path
        d="M207.521 168.458v-13.242h3.594v13.105q0 3.106 1.211 4.668 1.211 1.543 3.633 1.543 2.91 0 4.59-1.855 1.7-1.856 1.7-5.059v-12.402h3.593v21.875h-3.594v-3.36q-1.309 1.992-3.047 2.969-1.719.957-4.004.957-3.77 0-5.722-2.344-1.954-2.343-1.954-6.855zm9.043-13.77z"
        style="line-height:125%;text-align:start" id="path4164"/>
    <path d="M233.283 146.7h3.594v30.39h-3.594V146.7z" style="line-height:125%;text-align:start" id="path4166"/>
    <path
        d="M252.854 157.735q-2.891 0-4.57 2.266-1.68 2.246-1.68 6.172 0 3.925 1.66 6.191 1.68 2.246 4.59 2.246 2.87 0 4.55-2.265 1.68-2.266 1.68-6.172 0-3.887-1.68-6.153-1.68-2.285-4.55-2.285zm0-3.047q4.687 0 7.363 3.047t2.676 8.438q0 5.37-2.676 8.437-2.676 3.047-7.363 3.047-4.708 0-7.383-3.047-2.657-3.066-2.657-8.437 0-5.39 2.657-8.438 2.675-3.047 7.383-3.047z"
        style="line-height:125%;text-align:start" id="path4168"/>
    <path
        d="M268.459 168.458v-13.242h3.594v13.105q0 3.106 1.21 4.668 1.212 1.543 3.633 1.543 2.91 0 4.59-1.855 1.7-1.856 1.7-5.059v-12.402h3.593v21.875h-3.593v-3.36q-1.309 1.992-3.047 2.969-1.72.957-4.004.957-3.77 0-5.723-2.344-1.953-2.343-1.953-6.855zm9.043-13.77z"
        style="line-height:125%;text-align:start" id="path4170"/>
    <path
        d="M308.166 155.86v3.399q-1.523-.782-3.164-1.172-1.64-.39-3.398-.39-2.676 0-4.024.82-1.328.82-1.328 2.46 0 1.25.957 1.973.957.703 3.848 1.348l1.23.273q3.828.82 5.43 2.324 1.62 1.485 1.62 4.16 0 3.047-2.421 4.825-2.402 1.777-6.621 1.777-1.758 0-3.672-.351-1.894-.333-4.004-1.016v-3.711q1.992 1.035 3.926 1.562 1.934.508 3.828.508 2.54 0 3.906-.86 1.367-.878 1.367-2.46 0-1.465-.996-2.246-.976-.781-4.316-1.504l-1.25-.293q-3.34-.703-4.824-2.148-1.485-1.465-1.485-4.004 0-3.086 2.188-4.766 2.187-1.68 6.21-1.68 1.993 0 3.75.293 1.759.293 3.243.88z"
        style="line-height:125%;text-align:start" id="path4172"/>
    <path
        d="M333.791 165.255v1.758h-16.523q.234 3.71 2.226 5.664 2.012 1.933 5.586 1.933 2.07 0 4.004-.508 1.953-.507 3.867-1.523v3.398q-1.933.82-3.965 1.25-2.03.43-4.12.43-5.235 0-8.302-3.047-3.046-3.047-3.046-8.242 0-5.371 2.89-8.516 2.91-3.164 7.832-3.164 4.414 0 6.973 2.852 2.578 2.832 2.578 7.715zm-3.594-1.055q-.039-2.95-1.66-4.707-1.601-1.758-4.258-1.758-3.008 0-4.824 1.7-1.797 1.699-2.07 4.785l12.812-.02z"
        style="line-height:125%;text-align:start" id="path4174"/>
    <path
        d="M356.33 173.77h13.77v3.32h-18.516v-3.32q2.246-2.324 6.113-6.23 3.887-3.926 4.883-5.059 1.895-2.129 2.637-3.593.762-1.485.762-2.91 0-2.325-1.641-3.79-1.621-1.465-4.238-1.465-1.856 0-3.926.645-2.05.645-4.395 1.953v-3.984q2.383-.957 4.453-1.446 2.07-.488 3.79-.488 4.53 0 7.226 2.266 2.695 2.265 2.695 6.054 0 1.797-.683 3.418-.664 1.602-2.442 3.79-.488.566-3.105 3.28-2.617 2.696-7.383 7.56z"
        style="line-height:125%;text-align:start" id="path4176"/>
    <path
        d="M386.838 150.528q-3.047 0-4.59 3.008-1.523 2.988-1.523 9.004 0 5.996 1.523 9.004 1.543 2.988 4.59 2.988 3.066 0 4.59-2.988 1.543-3.008 1.543-9.004 0-6.016-1.543-9.004-1.524-3.008-4.59-3.008zm0-3.125q4.902 0 7.48 3.887 2.598 3.867 2.598 11.25 0 7.363-2.598 11.25-2.578 3.867-7.48 3.867-4.902 0-7.5-3.867-2.578-3.887-2.578-11.25 0-7.383 2.578-11.25 2.598-3.887 7.5-3.887z"
        style="line-height:125%;text-align:start" id="path4178"/>
    <path d="M404.553 173.77h6.445v-22.246l-7.012 1.407v-3.594l6.973-1.406h3.945v25.84h6.446v3.32h-16.797v-3.32z"
          style="line-height:125%;text-align:start" id="path4180"/>
    <path
        d="M438.264 160.938q-2.657 0-4.22 1.817-1.542 1.816-1.542 4.98 0 3.145 1.543 4.98 1.562 1.817 4.219 1.817 2.656 0 4.199-1.816 1.562-1.836 1.562-4.98 0-3.165-1.562-4.981-1.543-1.817-4.2-1.817zm7.832-12.363v3.594q-1.485-.703-3.008-1.074-1.504-.372-2.988-.372-3.907 0-5.977 2.637-2.05 2.637-2.344 7.969 1.153-1.7 2.89-2.598 1.74-.918 3.83-.918 4.394 0 6.933 2.676 2.558 2.656 2.558 7.246 0 4.492-2.656 7.207t-7.07 2.715q-5.059 0-7.735-3.867-2.675-3.887-2.675-11.25 0-6.914 3.28-11.016 3.282-4.12 8.81-4.12 1.484 0 2.988.292 1.523.293 3.164.879z"
        style="line-height:125%;text-align:start" id="path4182"/>
  </g>
</svg>